<?xml version="1.0" encoding="utf-8"?>
<!-- Generator: Adobe Illustrator 16.0.0, SVG Export Plug-In . SVG Version: 6.00 Build 0)  -->
<!DOCTYPE svg PUBLIC "-//W3C//DTD SVG 1.1//EN" "http://www.w3.org/Graphics/SVG/1.1/DTD/svg11.dtd">
<svg version="1.1" id="Layer_1" xmlns="http://www.w3.org/2000/svg" xmlns:xlink="http://www.w3.org/1999/xlink" x="0px" y="0px"
	 width="60px" height="60px" viewBox="0 0 60 60" enable-background="new 0 0 60 60" xml:space="preserve">
<circle fill="#862091" cx="30" cy="30" r="28"/>
<path display="none" fill="#E2C914" d="M21.125,23.375c0,0,3.375-4.625,7-3.75S30.5,29.375,36.25,30s16.25-3,12,2.75
	s-9,8-19.5,7.875s-17.103-8.28-10.25-14.5l-4.125-4l3.208-2.908L21.125,23.375z"/>
<g>
	<path fill="#E2C914" d="M17,33.805c0,0,16.142-1.041,28.387,1.047L46.5,32h-5.01l2.227-19.691c0,0-11.967-8.524-25.047,0.104
		l2.679,19.254L17,31.439V33.805z"/>
	<g>
		<circle fill="none" stroke="#E2C914" stroke-miterlimit="10" cx="38.012" cy="40.623" r="3.618"/>
	</g>
</g>
<g display="none">
	<g display="inline">
		<path fill="#E2C914" d="M44.943,10.52c-0.33-1.624-1.913-2.672-3.537-2.341l-21.559,4.384c-1.623,0.33-2.672,1.914-2.342,3.538
			l0.398,1.96l27.438-5.581L44.943,10.52z"/>
	</g>
	<g display="inline">
		<path fill="#E2C914" d="M22.488,40.598c0.33,1.623,1.914,2.673,3.537,2.343l21.559-4.384c1.623-0.33,2.672-1.916,2.342-3.539
			l-0.398-1.959l-27.438,5.58L22.488,40.598z"/>
	</g>
	<path display="inline" fill="#E2C914" d="M50.827,29.414c0.255,1.252-0.554,2.472-1.806,2.727l-25.846,5.256
		c-1.252,0.255-2.472-0.553-2.727-1.805l-0.074-0.367c-0.255-1.252,0.553-2.473,1.805-2.727l25.846-5.257
		c1.252-0.254,2.473,0.554,2.728,1.806L50.827,29.414z"/>
	<circle display="inline" fill="#E2C914" cx="16.469" cy="38.656" r="2.344"/>
	<g display="inline">
		<polygon fill="#E2C914" points="14.595,48.54 13.78,47.96 16,44.84 16,42 17,42 17,45.16 		"/>
	</g>
	<g display="inline">
		<rect x="15.625" y="46.25" transform="matrix(0.6 0.8 -0.8 0.6 44.525 4.45)" fill="#E2C914" width="4.375" height="1"/>
	</g>
	<g display="inline">
		<rect x="13" y="42" fill="#E2C914" width="7" height="1"/>
	</g>
	<g display="inline">
		<path fill="#E2C914" d="M43.455,27.66c-2.15,0.437-3.747,0.207-5.03,0.022c-0.85-0.123-1.521-0.22-2.128-0.097
			c-0.691,0.141-1.617,0.628-2.598,1.143c-1.33,0.7-2.837,1.493-4.453,1.821c-1.666,0.339-2.69,0.021-3.514-0.234
			c-0.658-0.204-1.134-0.352-1.93-0.189c-1.856,0.377-3.446,2.032-3.461,2.049c-0.38,0.4-1.013,0.418-1.414,0.038
			c-0.4-0.38-0.419-1.01-0.041-1.411c0.082-0.087,2.029-2.13,4.517-2.636c1.299-0.264,2.16,0.003,2.921,0.24
			c0.729,0.226,1.359,0.421,2.523,0.184c1.336-0.271,2.649-0.963,3.92-1.631c1.11-0.584,2.159-1.136,3.13-1.333
			c0.947-0.192,1.854-0.062,2.813,0.077c1.188,0.172,2.536,0.367,4.346-0.001c3.062-0.623,4.812-2.327,4.828-2.344
			c0.393-0.388,1.024-0.386,1.413,0.003c0.389,0.39,0.391,1.019,0.003,1.41C49.214,24.856,47.14,26.911,43.455,27.66z"/>
	</g>
	<path display="inline" fill="#E2C914" d="M48.834,19.614c0.255,1.252-0.553,2.472-1.805,2.727l-25.846,5.256
		c-1.252,0.254-2.473-0.553-2.728-1.805l-0.074-0.367c-0.255-1.252,0.553-2.473,1.805-2.727l25.846-5.256
		c1.252-0.255,2.473,0.553,2.728,1.805L48.834,19.614z"/>
	<g display="inline">
		<path fill="#E2C914" d="M41.462,17.861c-2.15,0.438-3.747,0.207-5.03,0.021c-0.85-0.123-1.521-0.22-2.128-0.096
			c-0.691,0.141-1.617,0.628-2.598,1.144c-1.33,0.7-2.837,1.492-4.453,1.821c-1.666,0.339-2.689,0.021-3.513-0.234
			c-0.658-0.204-1.135-0.352-1.931-0.189c-1.856,0.377-3.445,2.032-3.461,2.049c-0.38,0.4-1.013,0.417-1.413,0.038
			c-0.401-0.379-0.42-1.01-0.041-1.411c0.081-0.087,2.029-2.13,4.517-2.636c1.298-0.264,2.16,0.003,2.921,0.239
			c0.729,0.226,1.358,0.421,2.522,0.184c1.336-0.271,2.649-0.963,3.921-1.631c1.109-0.584,2.158-1.136,3.13-1.333
			c0.946-0.192,1.853-0.062,2.812,0.077c1.188,0.172,2.536,0.366,4.346-0.002c3.062-0.623,4.812-2.326,4.828-2.344
			c0.394-0.387,1.024-0.386,1.413,0.003c0.389,0.39,0.391,1.019,0.004,1.41C47.221,15.057,45.146,17.111,41.462,17.861z"/>
	</g>
</g>
</svg>
