<?xml version="1.0" encoding="utf-8"?>
<!-- Generator: Adobe Illustrator 16.0.0, SVG Export Plug-In . SVG Version: 6.00 Build 0)  -->
<!DOCTYPE svg PUBLIC "-//W3C//DTD SVG 1.1//EN" "http://www.w3.org/Graphics/SVG/1.1/DTD/svg11.dtd">
<svg version="1.1" id="Layer_1" xmlns="http://www.w3.org/2000/svg" xmlns:xlink="http://www.w3.org/1999/xlink" x="0px" y="0px"
	 width="122.214px" height="114.007px" viewBox="0 0 122.214 114.007" enable-background="new 0 0 122.214 114.007"
	 xml:space="preserve">
<rect x="30.714" y="44.059" transform="matrix(-0.475 0.88 -0.88 -0.475 124.888 89.6092)" fill="#5C5C5C" width="10" height="75.999"/>
<rect x="74.714" y="97.807" transform="matrix(-0.475 0.88 -0.88 -0.475 210.6863 85.9181)" fill="#E2C914" width="10" height="15.998"/>
<path fill="#862091" d="M121.888,32.942c3.965,22.107-29.549,65.611-29.549,65.611S45.796,69.404,41.832,47.297
	C37.868,25.19,52.576,4.056,74.683,0.091C96.79-3.873,117.925,10.835,121.888,32.942z"/>
<polygon fill="#E2C914" points="64.646,64.291 74.05,39.858 56.744,20.216 80.507,29.74 99.481,12.552 90.077,36.984 
	107.384,56.626 83.62,47.103 "/>
<polygon fill="#FFFFFF" points="88.038,69.031 77.413,45.104 51.286,43.453 74.823,33.383 76.087,7.813 86.714,31.739 
	112.841,33.39 89.304,43.46 "/>
</svg>
