<?xml version="1.0" encoding="utf-8"?>
<!-- Generator: Adobe Illustrator 16.0.0, SVG Export Plug-In . SVG Version: 6.00 Build 0)  -->
<!DOCTYPE svg PUBLIC "-//W3C//DTD SVG 1.1//EN" "http://www.w3.org/Graphics/SVG/1.1/DTD/svg11.dtd">
<svg version="1.1" xmlns="http://www.w3.org/2000/svg" xmlns:xlink="http://www.w3.org/1999/xlink" x="0px" y="0px" width="60px"
	 height="60px" viewBox="0 0 60 60" enable-background="new 0 0 60 60" xml:space="preserve">
<g id="background">
	<circle fill="#862091" cx="30" cy="30" r="28"/>
</g>
<g id="Food" display="none">
	<path id="Spicy" fill="#E2C914" d="M21.125,23.375c0,0,3.375-4.625,7-3.75S30.5,29.375,36.25,30s16.25-3,12,2.75s-9,8-19.5,7.875
		s-17.103-8.28-10.25-14.5l-4.125-4l3.208-2.908L21.125,23.375z"/>
	<g id="Fancy">
		<path display="inline" fill="#E2C914" d="M17,33.805c0,0,16.142-1.041,28.387,1.047L46.5,32h-5.01l2.227-19.691
			c0,0-11.967-8.524-25.047,0.104l2.679,19.254L17,31.439V33.805z"/>
		<g display="inline">
			<circle fill="none" stroke="#E2C914" stroke-miterlimit="10" cx="38.012" cy="40.623" r="3.618"/>
		</g>
	</g>
	<g id="Munchies" display="inline">
		<g>
			<path fill="#E2C914" d="M44.943,10.52c-0.33-1.624-1.913-2.672-3.537-2.341l-21.559,4.384c-1.623,0.33-2.672,1.914-2.342,3.538
				l0.398,1.96l27.438-5.581L44.943,10.52z"/>
		</g>
		<g>
			<path fill="#E2C914" d="M22.488,40.598c0.33,1.623,1.914,2.673,3.537,2.343l21.559-4.384c1.623-0.33,2.672-1.916,2.342-3.539
				l-0.398-1.959l-27.438,5.58L22.488,40.598z"/>
		</g>
		<path fill="#E2C914" d="M50.827,29.414c0.255,1.252-0.554,2.472-1.806,2.727l-25.846,5.256c-1.252,0.255-2.472-0.553-2.727-1.805
			l-0.074-0.367c-0.255-1.252,0.553-2.473,1.805-2.727l25.846-5.257c1.252-0.254,2.473,0.554,2.728,1.806L50.827,29.414z"/>
		<circle fill="#E2C914" cx="16.469" cy="38.656" r="2.344"/>
		<g>
			<polygon fill="#E2C914" points="14.595,48.54 13.78,47.96 16,44.84 16,42 17,42 17,45.16 			"/>
		</g>
		<g>
			<rect x="15.625" y="46.25" transform="matrix(0.6 0.8 -0.8 0.6 44.525 4.45)" fill="#E2C914" width="4.375" height="1"/>
		</g>
		<g>
			<rect x="13" y="42" fill="#E2C914" width="7" height="1"/>
		</g>
		<g>
			<path fill="#E2C914" d="M43.455,27.66c-2.15,0.437-3.747,0.207-5.03,0.022c-0.85-0.123-1.521-0.22-2.128-0.097
				c-0.691,0.141-1.617,0.628-2.598,1.143c-1.33,0.7-2.837,1.493-4.453,1.821c-1.666,0.339-2.69,0.021-3.514-0.234
				c-0.658-0.204-1.134-0.352-1.93-0.189c-1.856,0.377-3.446,2.032-3.461,2.049c-0.38,0.4-1.013,0.418-1.414,0.038
				c-0.4-0.38-0.419-1.01-0.041-1.411c0.082-0.087,2.029-2.13,4.517-2.636c1.299-0.264,2.16,0.003,2.921,0.24
				c0.729,0.226,1.359,0.421,2.523,0.184c1.336-0.271,2.649-0.963,3.92-1.631c1.11-0.584,2.159-1.136,3.13-1.333
				c0.947-0.192,1.854-0.062,2.813,0.077c1.188,0.172,2.536,0.367,4.346-0.001c3.062-0.623,4.812-2.327,4.828-2.344
				c0.393-0.388,1.024-0.386,1.413,0.003c0.389,0.39,0.391,1.019,0.003,1.41C49.214,24.856,47.14,26.911,43.455,27.66z"/>
		</g>
		<path fill="#E2C914" d="M48.834,19.614c0.255,1.252-0.553,2.472-1.805,2.727l-25.846,5.256c-1.252,0.254-2.473-0.553-2.728-1.805
			l-0.074-0.367c-0.255-1.252,0.553-2.473,1.805-2.727l25.846-5.256c1.252-0.255,2.473,0.553,2.728,1.805L48.834,19.614z"/>
		<g>
			<path fill="#E2C914" d="M41.462,17.861c-2.15,0.438-3.747,0.207-5.03,0.021c-0.85-0.123-1.521-0.22-2.128-0.096
				c-0.691,0.141-1.617,0.628-2.598,1.144c-1.33,0.7-2.837,1.492-4.453,1.821c-1.666,0.339-2.689,0.021-3.513-0.234
				c-0.658-0.204-1.135-0.352-1.931-0.189c-1.856,0.377-3.445,2.032-3.461,2.049c-0.38,0.4-1.013,0.417-1.413,0.038
				c-0.401-0.379-0.42-1.01-0.041-1.411c0.081-0.087,2.029-2.13,4.517-2.636c1.298-0.264,2.16,0.003,2.921,0.239
				c0.729,0.226,1.358,0.421,2.522,0.184c1.336-0.271,2.649-0.963,3.921-1.631c1.109-0.584,2.158-1.136,3.13-1.333
				c0.946-0.192,1.853-0.062,2.812,0.077c1.188,0.172,2.536,0.366,4.346-0.002c3.062-0.623,4.812-2.326,4.828-2.344
				c0.394-0.387,1.024-0.386,1.413,0.003c0.389,0.39,0.391,1.019,0.004,1.41C47.221,15.057,45.146,17.111,41.462,17.861z"/>
		</g>
	</g>
</g>
<g id="Camping">
	<g id="Boulder" display="none">
		<path display="inline" fill="#E2C914" d="M48,35.674l-0.442-5.593l-4.473-5.657l-5.153-9.593l-3.209,4.076l-1.571,3.345
			l-1.802-4.258l-5.539-7.168l-7.374,10.752L15.211,29.8L11,35.674V38h37V35.674z M27.579,20.945l-3.936,2.53l-1.406-0.984
			l-2.179,0.352l6.043-9.347l4.006,5.341l1.055,3.514L27.579,20.945z M38.12,21.016L35.239,22l1.124-2.249l1.757-2.249l2.038,3.935
			L38.12,21.016z"/>
	</g>
	<g id="Camping_1_" display="none">
		<path display="inline" fill="#E2C914" d="M29.84,14.28C10.513,14.28,10.804,38,10.804,38h38.363
			C49.167,38,49.167,14.28,29.84,14.28z M38,30.085c0,1.979-2.049,4.337-9.808,4.337c-0.486,0-1.09-0.393-1.09-0.878
			s-0.412-0.879,0.074-0.879c4.849,0,6.824-0.94,6.824-2.58v-4.063c0-3.336-6.227-3.622-6.296-3.624
			c-0.487-0.014-0.517-0.418-0.503-0.903c0.014-0.485,0.976-0.853,1.497-0.853C29.053,20.651,38,20.943,38,26.022V30.085z
			 M42.265,27.963c-0.621-0.923-1.336-1.894-2.165-2.843c-0.837-0.943-1.763-1.898-2.818-2.73l-0.798-0.633l-0.87-0.535
			c-0.563-0.398-1.213-0.628-1.834-0.925c-0.623-0.295-1.318-0.383-1.975-0.594c-0.66-0.047-1.434-0.156-2.006-0.141
			c-1.59,0.093-2.806,0.324-4.076,0.923c-0.646,0.25-1.251,0.586-1.835,0.957c-0.61,0.32-1.129,0.78-1.675,1.18
			c-2.119,1.699-3.826,3.682-5.122,5.491c-1.295,1.816-2.309,3.399-2.945,4.548c-0.654,1.142-0.999,1.816-0.999,1.816
			s0.202-0.73,0.692-1.964c0.513-1.217,1.241-2.983,2.434-4.94c0.598-0.978,1.292-2.011,2.098-3.064
			c0.821-1.036,1.735-2.113,2.855-3.066c0.573-0.462,1.116-0.978,1.78-1.368l0.97-0.63c0.336-0.193,0.705-0.337,1.06-0.508
			c0.688-0.368,1.498-0.588,2.313-0.795l0.608-0.161l0.561-0.055l1.124-0.111c0.924-0.035,1.657,0.114,2.485,0.188
			c0.769,0.243,1.579,0.377,2.295,0.721c0.714,0.342,1.453,0.634,2.064,1.107l0.947,0.642l0.848,0.728
			c1.134,0.949,2.031,2.052,2.825,3.113c0.789,1.067,1.445,2.13,2.008,3.129c1.133,1.998,1.773,3.8,2.232,5.039
			c0.436,1.256,0.598,1.995,0.598,1.995s-0.312-0.69-0.914-1.859C44.445,31.441,43.492,29.821,42.265,27.963z"/>
	</g>
	<path id="Aid" display="none" fill="#E2C914" d="M30,11.854c-10.022,0-18.146,8.124-18.146,18.146
		c0,10.021,8.124,18.146,18.146,18.146c10.021,0,18.146-8.125,18.146-18.146C48.146,19.978,40.021,11.854,30,11.854z M39,33h-6v6h-7
		v-6h-5v-7h5v-5h7v5h6V33z"/>
</g>
<g id="ico" display="none">
	<polygon display="inline" fill="#E2C914" points="17.187,49.031 24.104,31.057 11.373,16.607 28.854,23.614 42.813,10.97 
		35.895,28.943 48.627,43.393 31.145,36.387 	"/>
	<polygon display="inline" fill="#FFFFFF" points="34.395,52.518 26.579,34.916 7.359,33.7 24.674,26.294 25.604,7.482 
		33.421,25.083 52.641,26.298 35.327,33.706 	"/>
</g>
<g id="Festival">
	<path id="Stage" display="none" fill="#E2C914" d="M11,14v30h4V19.671c1,0.205,1.818,0.32,2.805,0.32
		c2.48,0,4.666-0.72,5.888-1.798c1.222,1.078,3.399,1.798,5.88,1.798c2.797,0,5.204-0.914,6.296-2.226
		c1.091,1.312,3.528,2.226,6.325,2.226c0.985,0,1.807-0.115,2.807-0.32V44h4V14H11z"/>
	<g id="Restaurants">
		<g>
			<g>
				<path fill="#E2C914" d="M48.725,27.038c0.005-1.255-1.01-2.276-2.265-2.279l-16.664-0.056c-1.255-0.004-2.276,1.01-2.28,2.265
					l-0.005,1.515l21.208,0.07L48.725,27.038z"/>
			</g>
			<g>
				<path fill="#E2C914" d="M27.351,38.922c-0.004,1.254,1.009,2.276,2.264,2.279l16.665,0.057c1.254,0.004,2.276-1.012,2.279-2.267
					l0.005-1.514l-21.208-0.07L27.351,38.922z"/>
			</g>
			<path fill="#E2C914" d="M50,34.973c0,0.968-0.746,1.749-1.715,1.747l-20.258-0.068C27.06,36.649,26,35.862,26,34.896v-0.284
				c0-0.967,1.094-1.749,2.061-1.746l20.086,0.066C49.114,32.935,50,33.722,50,34.69V34.973z"/>
			<g>
				<path fill="#E2C914" d="M44.889,32.541c-1.662-0.005-2.812-0.422-3.735-0.756c-0.612-0.221-1.095-0.396-1.563-0.397
					c-0.534-0.001-1.297,0.218-2.103,0.449c-1.095,0.315-2.334,0.671-3.583,0.668c-1.286-0.005-1.998-0.397-2.57-0.712
					c-0.457-0.254-0.787-0.436-1.402-0.438c-1.435-0.004-2.868,0.979-2.882,0.99c-0.343,0.238-0.815,0.154-1.054-0.189
					s-0.156-0.813,0.186-1.053c0.074-0.053,1.832-1.27,3.754-1.264c1.003,0.004,1.602,0.335,2.13,0.626
					c0.507,0.279,0.943,0.521,1.844,0.523c1.032,0.004,2.111-0.308,3.158-0.608c0.913-0.263,1.775-0.512,2.525-0.509
					c0.732,0.002,1.386,0.239,2.074,0.488c0.856,0.31,1.827,0.661,3.225,0.667c2.368,0.008,3.927-0.988,3.941-0.999
					c0.351-0.228,0.819-0.129,1.048,0.219c0.229,0.349,0.133,0.816-0.215,1.045C49.59,31.346,47.736,32.551,44.889,32.541z"/>
			</g>
			<polygon fill="#E2C914" points="21.484,41 11.868,41 10.666,21 22.687,21 			"/>
		</g>
		<g>
			<path fill="#E2C914" d="M17.878,22H17v-4.661c0-0.188,0.233-2.501,2.704-3.09c2.05-0.488,4.001-1.179,4.021-1.186l0.348,1.137
				c-0.085,0.03-2.126,0.716-4.233,1.218c-1.689,0.402-1.957,1.92-1.958,1.936L17.878,22z"/>
		</g>
	</g>
	<g id="Bathrooms" display="none">
		<circle display="inline" fill="#E2C914" cx="22.057" cy="21.081" r="4.768"/>
		<g display="inline">
			<polygon fill="#E2C914" points="18.175,41.188 16.501,40.008 21,33.66 21,28 23,28 23,34.312 			"/>
		</g>
		<g display="inline">
			<rect x="20.34" y="36.529" transform="matrix(0.6 0.8 -0.8 0.6 39.9528 -4.814)" fill="#E2C914" width="8.9" height="2.035"/>
		</g>
		<g display="inline">
			<rect x="15" y="28" fill="#E2C914" width="14" height="2"/>
		</g>
		<circle display="inline" fill="#E2C914" cx="39.057" cy="21.081" r="4.768"/>
		<g display="inline">
			<polygon fill="#E2C914" points="35.176,41.188 33.502,40.008 38,33.66 38,28 40,28 40,34.312 			"/>
		</g>
		<g display="inline">
			
				<rect x="37.341" y="36.529" transform="matrix(0.6001 0.8 -0.8 0.6001 46.7502 -18.4144)" fill="#E2C914" width="8.901" height="2.036"/>
		</g>
		<g display="inline">
			<rect x="32" y="28" fill="#E2C914" width="14" height="2"/>
		</g>
		<polygon display="inline" fill="#E2C914" points="36,39 43,39 39,34.594 		"/>
	</g>
</g>
</svg>
